<svg width="174" height="45" viewBox="0 0 174 45" fill="none" xmlns="http://www.w3.org/2000/svg">
<path d="M160.151 5.50134H164.628V13.7242H169.523V5.50134H174V25.8718H169.523V17.5445H164.628V25.8718H160.151V5.50134Z" fill="#102854"/>
<path d="M148.124 23.773V25.8623H143.647V5.49182H148.124V16.9232L148.796 15.6845L153.347 7.74526V5.49182H157.824V25.8623H153.347V15.3114L153.362 14.5056L152.646 15.8487L148.124 23.773ZM146.035 0H148.437C148.855 1.04464 149.701 1.56696 150.974 1.56696C152.238 1.56696 153.084 1.04464 153.511 0H155.914C155.208 2.49719 153.561 3.74578 150.974 3.74578C148.408 3.74578 146.761 2.49719 146.035 0Z" fill="#102854"/>
<path d="M131.428 5.50134H135.935L141.755 25.8718H137.173L136.158 21.6634H130.428L129.428 25.8718H125.309L131.428 5.50134ZM135.308 18.1713L133.263 9.85898L131.278 18.1713H135.308Z" fill="#102854"/>
<path d="M111.716 25.8718H107.582L113.179 5.50134H118.208L124.028 25.8718H119.581L115.536 9.85898L111.716 25.8718Z" fill="#102854"/>
<path d="M95.9743 5.50134H100.481L106.301 25.8718H101.72L100.705 21.6634H94.9744L93.9746 25.8718H89.8557L95.9743 5.50134ZM99.8544 18.1713L97.8099 9.85898L95.8251 18.1713H99.8544Z" fill="#102854"/>
<path d="M78.1062 23.5838V25.6731H73.6292V5.30261H78.1062V16.734L78.7777 15.4953L83.3294 7.55605V5.30261H87.8064V25.6731H83.3294V15.1222L83.3443 14.3164L82.628 15.6595L78.1062 23.5838Z" fill="#102854"/>
<path d="M55.6858 22.1559L60.118 5.50134H65.8635L69.8779 22.1559H71.1464V30.0056H67.8334L67.4305 25.8718H58.1034L57.7153 30.0056H54.4023V22.1559H55.6858ZM59.7599 22.1559H65.3412L62.8938 9.79929H62.3267L59.7599 22.1559Z" fill="#102854"/>
<path d="M40.3435 5.50134H52.7299V8.99342H44.8205V13.7242H50.969V17.2312H44.8205V22.2305H52.7299V25.8718H40.3435V5.50134Z" fill="#102854"/>
<path d="M19.5605 5.50134H26.1269L29.0071 18.0818L32.2455 5.50134H38.6178V25.8718H34.4243V8.81434L30.2606 25.8718H27.0073L23.2019 8.81434V25.8718H19.5605V5.50134Z" fill="#102854"/>
<path d="M63.9534 37.453L62.3596 37.2978C62.4352 36.6929 62.6919 36.2273 63.1296 35.901C63.5713 35.5747 64.1265 35.4115 64.7951 35.4115C65.3602 35.4115 65.8138 35.5209 66.1561 35.7398C66.4983 35.9547 66.7132 36.2054 66.8008 36.492C66.8923 36.7785 66.9381 37.2222 66.9381 37.8231V40.2288C66.9381 40.9769 66.9719 41.4227 67.0396 41.5659H65.4815C65.4258 41.4028 65.398 41.0943 65.398 40.6407C65.0279 41.3411 64.4767 41.6913 63.7445 41.6913C63.2749 41.6913 62.8928 41.552 62.5983 41.2734C62.3039 40.9909 62.1566 40.581 62.1566 40.0437C62.1566 39.3712 62.3795 38.8518 62.8252 38.4857C63.2709 38.1156 64.0827 37.8948 65.2607 37.8231V37.5963C65.2607 37.1944 65.2189 36.9158 65.1353 36.7606C65.0557 36.6054 64.8985 36.5278 64.6637 36.5278C64.2339 36.5278 63.9972 36.8362 63.9534 37.453ZM65.2607 38.6827C64.7712 38.7384 64.421 38.8479 64.2101 39.011C64.0031 39.1702 63.8997 39.4408 63.8997 39.8229C63.8997 40.3323 64.0867 40.5869 64.4608 40.5869C64.6637 40.5869 64.8468 40.4735 65.01 40.2467C65.1771 40.0159 65.2607 39.594 65.2607 38.9812V38.6827Z" fill="#102854"/>
<path d="M56.623 41.5659V35.5369H61.106V41.5659H59.4286V36.6352H58.3064V41.5659H56.623Z" fill="#102854"/>
<path d="M50.9043 41.5659V35.5369H55.3873V41.5659H53.7099V36.6352H52.5877V41.5659H50.9043Z" fill="#102854"/>
<path d="M45.7349 35.5369H47.4182L48.2301 39.22L49.0121 35.5369H50.4626L48.6479 41.6614C48.4728 42.2464 48.3236 42.6563 48.2002 42.8911C48.0769 43.1259 47.8918 43.3189 47.6451 43.4701C47.3983 43.6254 47.0839 43.703 46.7019 43.703C46.4671 43.703 46.2283 43.6711 45.9856 43.6074V42.2822C46.1527 42.3061 46.3099 42.3181 46.4572 42.3181C46.7835 42.3181 47.0063 42.2643 47.1257 42.1569C47.2491 42.0494 47.3645 41.8146 47.472 41.4525L45.7349 35.5369Z" fill="#102854"/>
<path d="M40.7684 35.5369H42.3204V36.4382C42.6507 35.7856 43.1083 35.4593 43.6933 35.4593C44.2465 35.4593 44.7061 35.706 45.0723 36.1995C45.4384 36.6889 45.6215 37.4391 45.6215 38.4499C45.6215 39.5085 45.4424 40.3064 45.0842 40.8436C44.726 41.3809 44.2226 41.6495 43.574 41.6495C43.1083 41.6495 42.7243 41.4724 42.4219 41.1182V43.6074H40.7684V35.5369ZM42.4219 39.1006C42.4219 39.6776 42.4676 40.0537 42.5592 40.2288C42.6547 40.3999 42.8457 40.4855 43.1322 40.4855C43.3869 40.4855 43.5759 40.3701 43.6993 40.1392C43.8227 39.9084 43.8844 39.3493 43.8844 38.4618C43.8844 37.7216 43.8306 37.2202 43.7232 36.9576C43.6157 36.6949 43.4347 36.5636 43.18 36.5636C42.9691 36.5636 42.79 36.6472 42.6427 36.8143C42.4955 36.9775 42.4219 37.3595 42.4219 37.9604V39.1006Z" fill="#102854"/>
<path d="M36.6853 35.5369H40.1058V36.8441H38.3687V41.5659H36.6853V35.5369Z" fill="#102854"/>
<path d="M15.1203 11.0027C12.3758 11.2785 9.73139 12.2233 7.4237 13.7652C4.64543 15.6216 2.48003 18.2602 1.20133 21.3472C0.566319 22.8803 0.164149 24.4897 0 26.123H1.69891C1.85677 24.711 2.21257 23.3206 2.76217 21.9937C3.913 19.2154 5.86186 16.8407 8.3623 15.17C10.3918 13.8139 12.7108 12.971 15.1203 12.7016V15.0143C13.3149 15.2986 11.5843 15.9714 10.0518 16.9955C7.96808 18.3877 6.34403 20.3667 5.385 22.6819C4.927 23.7877 4.6305 24.9464 4.49895 26.123H15.1203L15.1203 11.0027Z" fill="#102854"/>
<path d="M1.77254 30.065H0.0661539C0.11308 30.4138 0.170992 30.7618 0.239937 31.1084C0.891812 34.3856 2.50085 37.3959 4.86358 39.7586C7.22631 42.1213 10.2366 43.7304 13.5138 44.3822C14.0467 44.4882 14.5829 44.5682 15.1203 44.6222V42.9233C14.6932 42.8755 14.2672 42.8096 13.8434 42.7253C10.8939 42.1386 8.18465 40.6904 6.05819 38.564C3.93174 36.4375 2.4836 33.7283 1.89692 30.7788C1.84972 30.5415 1.80826 30.3035 1.77254 30.065Z" fill="#102854"/>
<path d="M15.1203 40.0474C14.953 40.0211 14.786 39.9914 14.6194 39.9582C12.1615 39.4693 9.90374 38.2625 8.13169 36.4905C6.37461 34.7334 5.17329 32.4988 4.6765 30.065H15.1203V40.0474Z" fill="#102854"/>
<path d="M19.0623 42.8496V44.556C20.5021 44.3623 21.9184 43.9827 23.275 43.4208C26.362 42.1421 29.0006 39.9767 30.8569 37.1985C32.2931 35.049 33.2113 32.6075 33.5533 30.065H31.8469C31.5163 32.2721 30.7023 34.3889 29.4522 36.2599C27.7815 38.7603 25.4068 40.7092 22.6284 41.86C21.4784 42.3364 20.2805 42.6672 19.0623 42.8496Z" fill="#102854"/>
<path d="M29.5061 30.065C29.1792 31.6666 28.5438 33.1979 27.6267 34.5704C26.2344 36.6541 24.2555 38.2781 21.9402 39.2372C21.0114 39.6219 20.0452 39.8927 19.0623 40.0474V30.065H29.5061Z" fill="#102854"/>
</svg>
