<svg width="265" height="69" viewBox="0 0 265 69" fill="none" xmlns="http://www.w3.org/2000/svg">
<mask id="mask0_207_889" style="mask-type:alpha" maskUnits="userSpaceOnUse" x="0" y="0" width="265" height="69">
<path d="M243.356 9.026H250.141V21.4872H257.559V9.026H264.343V39.8962H257.559V27.2767H250.141V39.8962H243.356V9.026Z" fill="#102854"/>
<path d="M225.13 36.7154V39.8816H218.345V9.01136H225.13V26.3349L226.147 24.4578L233.045 12.4263V9.01136H239.83V39.8816H233.045V23.8924L233.068 22.6711L231.982 24.7065L225.13 36.7154ZM221.963 0.688843H225.605C226.238 2.27193 227.519 3.06347 229.449 3.06347C231.364 3.06347 232.646 2.27193 233.294 0.688843H236.935C235.864 4.47317 233.369 6.36534 229.449 6.36534C225.559 6.36534 223.064 4.47317 221.963 0.688843Z" fill="#102854"/>
<path d="M199.828 9.026H206.657L215.477 39.8962H208.535L206.997 33.5186H198.312L196.797 39.8962H190.555L199.828 9.026ZM205.708 28.2266L202.609 15.6297L199.601 28.2266H205.708Z" fill="#102854"/>
<path d="M169.956 39.8962H163.691L172.172 9.026H179.793L188.613 39.8962H181.874L175.745 15.6297L169.956 39.8962Z" fill="#102854"/>
<path d="M146.1 9.026H152.93L161.75 39.8962H154.807L153.269 33.5186H144.585L143.07 39.8962H136.828L146.1 9.026ZM151.98 28.2266L148.882 15.6297L145.874 28.2266H151.98Z" fill="#102854"/>
<path d="M119.022 36.4285V39.5947H112.237V8.72449H119.022V26.048L120.04 24.1709L126.937 12.1394V8.72449H133.722V39.5947H126.937V23.6055L126.96 22.3843L125.874 24.4197L119.022 36.4285Z" fill="#102854"/>
<path d="M85.0453 34.2649L91.7621 9.026H100.469L106.553 34.2649H108.475V46.1607H103.454L102.844 39.8962H88.709L88.121 46.1607H83.1003V34.2649H85.0453ZM91.2193 34.2649H99.6775L95.9686 15.5393H95.1092L91.2193 34.2649Z" fill="#102854"/>
<path d="M61.7952 9.026H80.5661V14.318H68.5798V21.4872H77.8974V26.8018H68.5798V34.378H80.5661V39.8962H61.7952V9.026Z" fill="#102854"/>
<path d="M30.2998 9.026H40.2506L44.6154 28.0909L49.523 9.026H59.1798V39.8962H52.8249V14.0466L46.5151 39.8962H41.585L35.818 14.0466V39.8962H30.2998V9.026Z" fill="#102854"/>
<path d="M97.5743 57.4468L95.159 57.2116C95.2736 56.2949 95.6626 55.5893 96.3259 55.0948C96.9954 54.6003 97.8367 54.353 98.8498 54.353C99.7062 54.353 100.394 54.5189 100.912 54.8506C101.431 55.1762 101.757 55.5562 101.889 55.9904C102.028 56.4246 102.097 57.097 102.097 58.0077V61.6533C102.097 62.7871 102.149 63.4626 102.251 63.6797H99.8901C99.8057 63.4324 99.7635 62.965 99.7635 62.2775C99.2026 63.3389 98.3674 63.8696 97.2577 63.8696C96.5461 63.8696 95.9671 63.6586 95.5208 63.2364C95.0745 62.8082 94.8514 62.187 94.8514 61.3729C94.8514 60.3537 95.1891 59.5667 95.8646 59.0118C96.54 58.451 97.7703 58.1163 99.5554 58.0077V57.6639C99.5554 57.0548 99.4921 56.6327 99.3655 56.3975C99.2449 56.1623 99.0066 56.0447 98.6508 56.0447C97.9995 56.0447 97.6407 56.5121 97.5743 57.4468ZM99.5554 59.3104C98.8136 59.3948 98.2829 59.5606 97.9633 59.8079C97.6497 60.0491 97.4929 60.4592 97.4929 61.0382C97.4929 61.8101 97.7763 62.1961 98.3432 62.1961C98.6508 62.1961 98.9282 62.0242 99.1755 61.6805C99.4288 61.3307 99.5554 60.6914 99.5554 59.7627V59.3104Z" fill="#102854"/>
<path d="M86.4656 63.6797V54.543H93.2593V63.6797H90.7173V56.2075H89.0166V63.6797H86.4656Z" fill="#102854"/>
<path d="M77.7993 63.6797V54.543H84.593V63.6797H82.051V56.2075H80.3503V63.6797H77.7993Z" fill="#102854"/>
<path d="M69.9653 54.543H72.5163L73.7466 60.1245L74.9316 54.543H77.1299L74.3798 63.8244C74.1145 64.7109 73.8883 65.3321 73.7014 65.6879C73.5144 66.0437 73.234 66.3362 72.8601 66.5654C72.4862 66.8006 72.0097 66.9182 71.4308 66.9182C71.0749 66.9182 70.7131 66.87 70.3452 66.7735V64.7652C70.5985 64.8014 70.8367 64.8195 71.0599 64.8195C71.5544 64.8195 71.8921 64.7381 72.073 64.5752C72.26 64.4124 72.4349 64.0566 72.5977 63.5078L69.9653 54.543Z" fill="#102854"/>
<path d="M62.4388 54.543H64.7908V55.909C65.2914 54.9199 65.9849 54.4254 66.8715 54.4254C67.7098 54.4254 68.4063 54.7993 68.9611 55.5471C69.516 56.2889 69.7934 57.4257 69.7934 58.9575C69.7934 60.5617 69.522 61.7709 68.9792 62.5851C68.4365 63.3992 67.6736 63.8063 66.6905 63.8063C65.9849 63.8063 65.403 63.5379 64.9446 63.0012V66.7735H62.4388V54.543ZM64.9446 59.9436C64.9446 60.8181 65.014 61.388 65.1527 61.6533C65.2974 61.9126 65.5869 62.0423 66.0211 62.0423C66.4071 62.0423 66.6936 61.8674 66.8805 61.5176C67.0675 61.1678 67.161 60.3205 67.161 58.9756C67.161 57.8539 67.0795 57.094 66.9167 56.696C66.7539 56.298 66.4795 56.0989 66.0935 56.0989C65.7739 56.0989 65.5025 56.2256 65.2793 56.4789C65.0562 56.7262 64.9446 57.3051 64.9446 58.2158V59.9436Z" fill="#102854"/>
<path d="M56.2512 54.543H61.4347V56.5241H58.8023V63.6797H56.2512V54.543Z" fill="#102854"/>
<path d="M23.5709 17.3627C19.4118 17.7807 15.4043 19.2124 11.9071 21.5491C7.69684 24.3624 4.41531 28.3609 2.47752 33.0392C1.5152 35.3624 0.90574 37.8014 0.656982 40.2766H3.23157C3.47079 38.1368 4.00999 36.0297 4.84288 34.0189C6.58689 29.8085 9.54027 26.2098 13.3295 23.6779C16.4052 21.6228 19.9193 20.3455 23.5709 19.9373V23.442C20.8349 23.8728 18.2123 24.8925 15.8898 26.4444C12.7321 28.5543 10.271 31.5532 8.81762 35.0619C8.12355 36.7375 7.67422 38.4935 7.47487 40.2766H23.5709L23.5709 17.3627Z" fill="#102854"/>
<path d="M3.34315 46.2505H0.757234C0.828349 46.779 0.916109 47.3063 1.02059 47.8316C2.00847 52.798 4.44687 57.3599 8.02743 60.9405C11.608 64.521 16.1699 66.9594 21.1363 67.9473C21.944 68.108 22.7564 68.2291 23.5709 68.3109V65.7363C22.9236 65.664 22.278 65.564 21.6358 65.4363C17.166 64.5472 13.0603 62.3526 9.8378 59.1301C6.61529 55.9076 4.42073 51.8019 3.53164 47.3321C3.46012 46.9725 3.39729 46.6119 3.34315 46.2505Z" fill="#102854"/>
<path d="M23.5709 61.3782C23.3173 61.3383 23.0642 61.2932 22.8117 61.243C19.0869 60.5021 15.6655 58.6733 12.9801 55.9878C10.3173 53.3251 8.49678 49.9387 7.74392 46.2505H23.5709V61.3782Z" fill="#102854"/>
<path d="M29.5448 65.6247V68.2107C31.7266 67.9171 33.873 67.3419 35.9287 66.4904C40.607 64.5526 44.6055 61.2711 47.4188 57.0608C49.5952 53.8034 50.9866 50.1034 51.505 46.2505H48.9191C48.418 49.5951 47.1845 52.8031 45.29 55.6384C42.7581 59.4276 39.1594 62.381 34.949 64.125C33.2061 64.8469 31.3909 65.3482 29.5448 65.6247Z" fill="#102854"/>
<path d="M45.3717 46.2505C44.8763 48.6776 43.9133 50.9982 42.5236 53.0781C40.4136 56.2358 37.4147 58.6969 33.906 60.1503C32.4984 60.7333 31.0342 61.1437 29.5448 61.3782V46.2505H45.3717Z" fill="#102854"/>
</mask>
<g mask="url(#mask0_207_889)">
<rect x="0.656982" y="0.688843" width="263.686" height="68.1947" fill="white"/>
</g>
</svg>
