<svg width="65" height="82" viewBox="0 0 65 82" fill="none" xmlns="http://www.w3.org/2000/svg">
<path d="M64.5 30.457C64.5 23.9503 62.2223 17.5995 58.0911 12.5858C52.7094 6.03447 44.7373 2.29086 36.274 2.29086C27.7883 2.29086 19.8385 6.03447 14.4568 12.5858C10.3256 17.5995 8.04785 23.9503 8.04785 30.457C8.04785 45.9885 20.7094 58.6232 36.274 58.6232C51.8162 58.6232 64.5 45.9885 64.5 30.457ZM61.5747 30.457C61.5747 31.7495 61.4854 33.0196 61.2844 34.2675C57.1309 37.1198 52.888 39.1698 48.6005 40.4177C48.8908 39.1921 49.1141 37.9665 49.2258 36.6964C49.7841 30.9473 48.6229 25.3541 46.8141 20.4518C50.119 19.605 53.558 18.1789 57.0192 16.0397C59.9669 20.229 61.5747 25.2873 61.5747 30.457ZM47.7743 36.5181C47.6403 37.9888 47.3723 39.4149 46.9927 40.8188C40.0255 42.49 32.902 42.0444 25.6668 39.4595C25.4882 39.3927 25.3095 39.3258 25.1309 39.259C24.9522 38.3676 24.8183 37.454 24.7066 36.5404C24.126 30.7021 25.4882 24.953 27.4533 19.9616C30.6019 20.8752 34.1972 21.5214 38.1274 21.5214C40.4275 21.5214 42.8392 21.2986 45.3402 20.7638C47.149 25.5547 48.3326 30.9918 47.7743 36.5181ZM55.8357 14.413C55.9474 14.5467 56.059 14.6804 56.1707 14.8364C52.8211 16.8865 49.5161 18.2235 46.3005 19.0479C43.8218 12.8755 40.4275 7.92855 38.44 5.29912C45.2063 5.8562 51.4589 9.10957 55.8357 14.413ZM36.2516 5.1877C36.3409 5.1877 36.4303 5.1877 36.4973 5.1877C38.1497 7.28234 42.013 12.5858 44.8043 19.3822C38.5294 20.6746 32.7457 19.9393 28.0339 18.6023C30.7806 12.1847 34.4205 7.21549 36.006 5.1877C36.0953 5.1877 36.1623 5.1877 36.2516 5.1877ZM34.0855 5.27683C32.1874 7.77257 29.0388 12.3852 26.6047 18.1566C22.2279 16.7305 18.9229 14.8587 17.2481 13.7668C21.5803 8.86445 27.5873 5.83392 34.0855 5.27683ZM10.9285 30.457C10.9285 24.8193 12.8266 19.3376 16.3102 14.9032C18.0074 15.9951 21.4463 18.0006 26.0465 19.5159C24.0367 24.6411 22.6968 30.5684 23.2998 36.6741C23.3668 37.3426 23.4561 37.9888 23.5677 38.635C17.3151 36.0056 12.8043 32.4402 10.9732 30.8136C10.9509 30.6799 10.9285 30.5684 10.9285 30.457ZM11.0625 32.7968C13.4966 34.78 17.9627 37.9665 23.9027 40.3286C25.2425 46.0108 28.3242 51.0914 33.17 55.5258C21.424 54.0774 12.1567 44.607 11.0625 32.7968ZM36.2516 55.7041C36.0283 55.7041 35.805 55.7041 35.5817 55.6818C30.4456 51.4034 27.0737 46.4788 25.5552 40.9302C29.2174 42.2004 33.6389 43.1808 38.5964 43.1808C41.1197 43.1808 43.7548 42.9134 46.5238 42.3341C44.849 47.3032 41.6333 51.7822 36.9215 55.6818C36.6982 55.7041 36.4749 55.7041 36.2516 55.7041ZM39.3556 55.5258C43.7324 51.5371 46.6801 46.9913 48.1763 41.9775C52.2405 40.9302 56.5056 39.103 60.8825 36.273C58.4707 46.4119 49.9181 54.2334 39.3556 55.5258Z" fill="#000A1D"/>
<path d="M30.8029 68.8957H22.4065C19.0569 68.8957 16.3325 71.6143 16.3325 74.9568C16.3325 78.2993 19.0569 81.0179 22.4065 81.0179H50.0966C53.4463 81.0179 56.1706 78.2993 56.1706 74.9568C56.1706 71.6143 53.4463 68.8957 50.0966 68.8957H41.7003V67.4919C41.7003 66.6897 41.5216 65.9543 41.209 65.2635C44.4023 64.8179 47.7296 63.9934 51.1462 62.8124C52.0841 62.4781 52.5977 61.4531 52.2627 60.4949C51.9278 59.5367 50.9006 59.0465 49.9403 59.3807C43.8664 61.4976 38.172 62.3444 32.9913 61.921C17.4267 60.6509 4.18458 45.7879 4.13992 29.4542C4.13992 26.7802 4.43022 24.2176 5.01082 21.8333C5.97104 17.8891 7.82449 14.1455 10.3479 11.0258C13.0722 7.68333 16.4665 5.00933 19.9278 3.49406C20.8433 3.07067 21.2676 2.00107 20.8433 1.08745C20.4414 0.173837 19.3695 -0.249547 18.4316 0.151554C14.4121 1.93422 10.6158 4.89791 7.48953 8.73065C4.63119 12.2514 2.55443 16.4853 1.46022 20.9642C0.812631 23.6382 0.5 26.4905 0.5 29.4542C0.544662 47.0803 14.4791 63.1689 31.2271 65.3749C30.9592 66.0212 30.8029 66.7342 30.8029 67.4696V68.8957ZM32.2544 71.7926C33.0583 71.7926 33.7059 71.1463 33.7059 70.3441V67.4919C33.7059 66.7565 34.0185 66.1103 34.5098 65.6423C34.8894 65.6646 35.2467 65.6646 35.6263 65.6646C36.3856 65.6646 37.1448 65.6423 37.9264 65.5755C38.4623 66.0434 38.7973 66.7119 38.7973 67.4696V70.3218C38.7973 71.1241 39.4449 71.7703 40.2488 71.7703H50.0966C51.8385 71.7703 53.2453 73.1964 53.2453 74.9345C53.2453 76.6726 51.8385 78.0987 50.0966 78.0987H22.4065C20.6647 78.0987 19.2355 76.6949 19.2355 74.9345C19.2355 73.1964 20.6424 71.7703 22.4065 71.7703H32.2544V71.7926Z" fill="#000A1D"/>
</svg>
