<svg width="75" height="81" viewBox="0 0 75 81" fill="none" xmlns="http://www.w3.org/2000/svg">
<path d="M20.2869 49.5821H25.8724V67.1428C25.8724 67.6838 26.3085 68.0999 26.8276 68.0999H31.7279C32.2677 68.0999 32.683 67.663 32.683 67.1428V40.3023C32.683 39.7822 32.2469 39.3452 31.7279 39.3452H27.5543C27.0144 39.3452 26.5992 39.7822 26.5992 40.3023C26.5992 40.3648 26.5784 40.5728 26.4331 41.093C26.2462 41.738 25.9762 42.2582 25.6233 42.6327C25.0834 43.1945 24.419 43.569 23.5469 43.7562C22.9447 43.8811 21.8235 43.9851 20.2454 44.0683C19.7263 44.0891 19.311 44.5053 19.311 45.0254V48.6042C19.311 49.1451 19.7471 49.5821 20.2869 49.5821ZM21.2421 45.9409C22.4879 45.8577 23.3808 45.7537 23.9622 45.6288C25.208 45.3583 26.2254 44.7966 27.0144 43.9435C27.5751 43.3609 27.9903 42.5703 28.2603 41.634C28.3018 41.5091 28.3226 41.3843 28.3641 41.2595H30.7727V66.1649H27.7827V48.6042C27.7827 48.0632 27.3467 47.6471 26.8276 47.6471H21.2421V45.9409Z" fill="#000A1D"/>
<path d="M38.3723 66.0609C40.1788 67.559 42.4836 68.3288 45.2452 68.3288C48.692 68.3288 51.329 67.2261 53.0939 65.0622C54.8173 62.9399 55.6894 60.5055 55.6894 57.8215C55.6894 54.7005 54.755 52.2869 52.907 50.6224C51.1006 48.9787 48.9411 48.1464 46.491 48.1464C45.2659 48.1464 44.2485 48.3129 43.3764 48.625C43.2311 48.6874 43.0857 48.7498 42.9196 48.8122L43.1688 45.6912H51.9104C52.4295 45.6912 52.8655 45.2543 52.8655 44.7341V40.2815C52.8655 39.7406 52.4295 39.3244 51.9104 39.3244H37.5833C37.0849 39.3244 36.6697 39.7198 36.6281 40.2191L35.6315 54.9918C35.6107 55.2623 35.6938 55.5119 35.8806 55.6992C36.0467 55.8865 36.2959 56.0113 36.5451 56.0113L41.7776 56.2402C42.1513 56.261 42.5043 56.0529 42.6704 55.72C42.9819 55.1374 43.3972 54.7629 43.9786 54.5548C44.3523 54.43 44.7884 54.3676 45.3282 54.3676C46.3664 54.3676 47.0516 54.6797 47.5084 55.3663C48.0275 56.1361 48.2975 57.1141 48.2975 58.2792C48.2975 59.4444 48.0275 60.4223 47.4669 61.1713C46.9686 61.8371 46.2626 62.17 45.2659 62.17C44.4146 62.17 43.7917 61.962 43.3972 61.525C42.9404 61.0465 42.6289 60.3183 42.4628 59.3612C42.3797 58.9034 41.9852 58.5705 41.5077 58.5705H36.2752C36.0052 58.5705 35.7561 58.6745 35.5692 58.8826C35.3823 59.0699 35.2992 59.3404 35.32 59.6108C35.5069 62.3365 36.5451 64.5212 38.3723 66.0609ZM40.7394 60.4639C41.0093 61.421 41.4246 62.2117 42.006 62.8151C42.7743 63.6265 43.8747 64.0426 45.2659 64.0426C46.8855 64.0426 48.1313 63.4393 49.0034 62.2741C49.8132 61.1921 50.2077 59.8397 50.2077 58.2376C50.2077 56.6771 49.834 55.3455 49.0865 54.2427C48.2559 53.036 46.9893 52.4118 45.3075 52.4118C44.5807 52.4118 43.9163 52.5158 43.3349 52.7031C42.4836 53.0152 41.7983 53.5353 41.2793 54.2636L37.5833 54.1179L38.4554 41.2178H50.9345V43.7562H42.2759C41.7776 43.7562 41.3623 44.1308 41.3208 44.6301L40.8432 50.4768C40.8224 50.8513 40.9886 51.1842 41.3 51.3714C41.6115 51.5587 42.006 51.5587 42.3174 51.3506C43.2311 50.7472 43.7502 50.4976 44.0201 50.3935C44.6638 50.1439 45.4943 50.0398 46.4702 50.0398C48.4428 50.0398 50.1247 50.6848 51.5989 52.0164C53.0524 53.3273 53.7376 55.2207 53.7376 57.8007C53.7376 60.0686 53.0316 62.0244 51.5781 63.8138C50.1662 65.5407 48.0898 66.373 45.2244 66.373C42.8988 66.373 41.0508 65.7696 39.5766 64.542C38.3723 63.5225 37.6248 62.1701 37.3133 60.4223H40.7394V60.4639Z" fill="#000A1D"/>
<path d="M66.4242 12.5256H64.0779C63.8703 12.5256 63.6834 12.5672 63.4965 12.6504V4.7439C63.4965 2.12227 61.3578 0 58.7624 0C56.1461 0 54.0282 2.12227 54.0282 4.7439V12.5464C53.9451 12.5256 53.8621 12.5256 53.7583 12.5256H21.242C21.1174 12.5256 20.9928 12.5464 20.889 12.5672V4.7439C20.889 2.12227 18.7711 0 16.1548 0C13.5386 0 11.4206 2.12227 11.4206 4.7439V12.6088C11.2545 12.5464 11.1092 12.5256 10.9431 12.5256H8.57599C4.07022 12.5256 0.415771 16.1875 0.415771 20.7025V72.823C0.415771 77.338 4.07022 81 8.57599 81H66.4242C70.93 81 74.5844 77.338 74.5844 72.823V20.7025C74.5844 16.1875 70.93 12.5256 66.4242 12.5256ZM56.6652 4.7439C56.6652 3.59954 57.5996 2.66324 58.7416 2.66324C59.8836 2.66324 60.818 3.59954 60.818 4.7439V19.038C60.818 20.1824 59.8836 21.1187 58.7416 21.1187C57.5996 21.1187 56.6652 20.1824 56.6652 19.038V4.7439ZM14.0784 4.7439C14.0784 3.59954 15.0128 2.66324 16.1548 2.66324C17.2968 2.66324 18.2312 3.59954 18.2312 4.7439V19.038C18.2312 20.1824 17.2968 21.1187 16.1548 21.1187C15.0128 21.1187 14.0784 20.1824 14.0784 19.038V4.7439ZM71.6983 72.823C71.6983 75.7359 69.3312 78.1079 66.4035 78.1079H8.57599C5.66904 78.1079 3.28119 75.7359 3.28119 72.823V20.7025C3.28119 17.7896 5.64828 15.3969 8.57599 15.3969H9.4896V18.2266C9.4896 21.8677 12.4381 24.8431 16.0925 24.8431C19.7262 24.8431 22.6954 21.8885 22.6954 18.2266V15.3969H52.3255V18.2266C52.3255 21.8677 55.274 24.8431 58.9285 24.8431C62.5621 24.8431 65.5314 21.8885 65.5314 18.2266V15.3969H66.445C69.3519 15.3969 71.7398 17.7688 71.7398 20.7025V72.823H71.6983Z" fill="#000A1D"/>
<path d="M67.5247 33.2905H7.7247C6.93567 33.2905 6.29199 33.9355 6.29199 34.7262V70.139C6.29199 72.8646 8.51373 75.0909 11.2546 75.0909H64.0156C66.7357 75.0909 68.9782 72.8646 68.9782 70.139V34.7262C68.9575 33.9355 68.3138 33.2905 67.5247 33.2905ZM66.0713 70.139C66.0713 71.2833 65.1369 72.2196 63.9949 72.2196H11.2338C10.0918 72.2196 9.15741 71.2833 9.15741 70.139V36.1826H66.0713V70.139Z" fill="#000A1D"/>
</svg>
