<svg width="96" height="82" viewBox="0 0 96 82" fill="none" xmlns="http://www.w3.org/2000/svg">
<path d="M16.7168 23.5729C16.6615 23.2576 16.3574 23.0151 15.9703 23.0636C15.3621 23.1363 14.8644 23.1848 14.505 23.2333C13.9797 23.3061 13.6756 23.3546 13.6756 23.3788C13.3162 23.4516 13.0673 23.7669 13.1503 24.0821C13.2332 24.3489 13.5097 24.5429 13.8138 24.5429C13.8691 24.5429 13.9244 24.5429 13.9521 24.5187C13.9521 24.5187 14.7538 24.3732 16.1086 24.2276C16.1362 24.2276 16.1362 24.2034 16.1639 24.2034C16.5233 24.1549 16.7444 23.8881 16.7168 23.5729Z" fill="#000A1D"/>
<path d="M77.9282 51.5591C77.6517 51.7531 77.4029 51.9471 77.1264 52.1411C76.8223 52.3351 76.767 52.7232 77.0158 52.9657C77.1541 53.1112 77.3476 53.1839 77.5411 53.1839C77.6794 53.1839 77.8176 53.1354 77.9282 53.0627C77.9282 53.0627 77.9558 53.0627 77.9558 53.0384C78.26 52.8444 78.5364 52.6261 78.8129 52.4079C79.6976 51.7288 80.5547 50.977 81.3841 50.1525C81.6329 49.91 81.6053 49.522 81.3288 49.3279C81.0523 49.1097 80.61 49.1339 80.3888 49.3764C79.8912 49.8857 79.3659 50.3708 78.8129 50.8073C78.5364 51.0983 78.2323 51.3408 77.9282 51.5591Z" fill="#000A1D"/>
<path d="M41.323 31.0181C41.4612 31.1393 41.6271 31.1878 41.793 31.1878C41.9589 31.1878 42.1248 31.1393 42.263 31.0181C42.5395 30.7998 42.5395 30.4118 42.263 30.1693C41.8206 29.757 41.323 29.3932 40.853 29.0052C40.5489 28.7869 40.2447 28.5687 39.9406 28.3504C39.4983 28.0594 39.0836 27.7441 38.6136 27.4531C38.3094 27.2591 37.8947 27.3318 37.6735 27.5986C37.4524 27.8654 37.5353 28.2291 37.8394 28.4231C38.5583 28.8597 39.2494 29.369 39.9406 29.8782C40.2447 30.1208 40.5489 30.3633 40.853 30.6058C41.0189 30.7755 41.1571 30.8725 41.323 31.0181Z" fill="#000A1D"/>
<path d="M46.4932 37.4932C46.6038 37.7115 46.8526 37.8327 47.1014 37.8327C47.212 37.8327 47.295 37.8085 47.4055 37.7842C47.7373 37.6387 47.8755 37.2749 47.7097 36.9839C47.2397 36.1351 46.6867 35.3106 46.1338 34.5345C45.8573 34.1465 45.5808 33.7585 45.3043 33.3947C45.2767 33.3705 45.249 33.3462 45.249 33.3462C45.0279 33.1279 44.6685 33.0794 44.3643 33.2492C44.0602 33.4432 43.9773 33.807 44.1984 34.0738C44.5579 34.5345 44.8896 35.0196 45.249 35.5046C45.5532 35.9654 45.8573 36.4504 46.1614 36.9354C46.272 37.1294 46.3826 37.2992 46.4932 37.4932Z" fill="#000A1D"/>
<path d="M56.3079 51.6561C56.3908 51.7046 56.5014 51.7288 56.612 51.7288C56.7779 51.7288 56.9714 51.6803 57.082 51.5591C57.3308 51.3166 57.3308 50.9528 57.082 50.7103C56.8332 50.492 56.5567 50.2738 56.3079 50.0312C56.0037 49.7402 55.6996 49.4492 55.3955 49.1339C54.9531 48.6732 54.5108 48.2124 54.0961 47.7031C53.8749 47.4363 53.4602 47.3878 53.1561 47.5818C52.852 47.7759 52.7967 48.1396 53.0178 48.4064C53.792 49.3037 54.5937 50.1525 55.3955 50.9043C55.6443 51.1226 55.8655 51.3408 56.1143 51.5591C56.1973 51.5833 56.2526 51.6318 56.3079 51.6561Z" fill="#000A1D"/>
<path d="M51.055 45.2052C51.138 45.2052 51.1933 45.1809 51.2762 45.1567C51.3039 45.1567 51.3592 45.1567 51.3868 45.1324C51.7186 44.9627 51.8292 44.5989 51.6356 44.3321C51.4974 44.1381 51.3868 43.9199 51.2486 43.7259C50.9444 43.2408 50.6403 42.7315 50.3362 42.198C50.0597 41.713 49.8109 41.2522 49.5621 40.7429C49.3962 40.4519 49.0091 40.3064 48.6774 40.4519C48.3456 40.5974 48.1797 40.9369 48.3456 41.2279C48.9815 42.4648 49.645 43.6531 50.3639 44.7444C50.3915 44.7929 50.4191 44.8657 50.4744 44.9142C50.585 45.1082 50.8062 45.2052 51.055 45.2052Z" fill="#000A1D"/>
<path d="M25.2322 24.3004C25.2599 24.3004 25.2875 24.3004 25.3152 24.3004C25.647 24.3004 25.9511 24.0821 25.9787 23.7911C26.034 23.4759 25.7575 23.1606 25.3981 23.1121C24.7899 23.0636 24.1816 23.0151 23.5458 22.9666C23.2693 22.9423 22.9652 22.9181 22.661 22.9181C21.9975 22.8696 21.334 22.8453 20.6704 22.8453C20.311 22.8453 20.0069 23.1121 19.9792 23.4273C19.9792 23.7426 20.2834 24.0336 20.6428 24.0336C21.3063 24.0336 21.9699 24.0579 22.6334 24.1064C22.9375 24.1306 23.2416 24.1549 23.5458 24.1791C24.1263 24.2034 24.6793 24.2519 25.2322 24.3004Z" fill="#000A1D"/>
<path d="M83.3469 46.9998C83.4575 47.0726 83.5957 47.0968 83.7063 47.0968C83.7893 47.0968 83.8446 47.0726 83.9275 47.0483C84.0658 46.9998 84.1763 46.9513 84.2593 46.83C84.674 46.2723 85.0611 45.6902 85.4481 45.1082C85.6416 44.8172 85.5311 44.4534 85.1993 44.3079C84.8675 44.1381 84.4528 44.2351 84.2869 44.5261C84.1763 44.6959 84.0381 44.8657 83.9275 45.0354C83.6787 45.4234 83.4022 45.8115 83.1257 46.1752C82.9599 46.442 83.0428 46.8058 83.3469 46.9998Z" fill="#000A1D"/>
<path d="M28.6606 0.170731C28.2459 -0.0475326 27.7482 -0.0475326 27.3335 0.122228L1.26204 12.0297C0.819686 12.248 0.543213 12.6603 0.543213 13.0968V78.8426C0.543213 79.2549 0.792039 79.6429 1.20675 79.8612C1.40028 79.9824 1.64911 80.0309 1.89793 80.0309C2.11911 80.0309 2.31264 79.9824 2.53382 79.8854L28.6053 67.9779C29.0476 67.7839 29.3241 67.3716 29.3241 66.9351V24.8588C29.407 24.98 29.5453 25.0528 29.6835 25.1013C31.0935 25.4408 32.4483 25.9016 33.7477 26.4109V67.9294C33.7477 68.3659 34.0242 68.7782 34.4665 68.9722L60.538 80.8797C60.7315 80.9767 60.9527 81.0252 61.1739 81.0252C61.4227 81.0252 61.6715 80.9767 61.865 80.8555C62.2797 80.6372 62.5286 80.2492 62.5286 79.8369V55.3429C63.1092 55.5611 63.7174 55.7309 64.298 55.8764C64.3533 55.9007 64.4086 55.9007 64.4639 55.9007C64.768 55.9007 65.0445 55.7309 65.1274 55.4641C65.238 55.1489 65.0168 54.8336 64.6574 54.7366C63.9386 54.5668 63.2198 54.3486 62.5286 54.0576V14.0668C62.5286 13.6303 62.2521 13.218 61.8097 13.024L35.7383 1.11654C35.3236 0.922527 34.8259 0.946779 34.4112 1.16504C33.9965 1.38331 33.7477 1.77133 33.7477 2.1836V25.1498C32.5588 24.7132 31.3147 24.301 30.0429 23.9857C29.7388 23.9129 29.4623 24.0342 29.2965 24.2282V1.18929C29.3241 0.777018 29.0753 0.388994 28.6606 0.170731ZM26.6147 66.2318L23.5735 67.6141L22.6611 68.0264L18.2652 70.0393L17.3528 70.4516L13.1228 72.3917L12.5698 72.6585L8.06329 74.6956L7.56564 74.9138L3.25265 76.8782V13.8243L12.3486 9.67732L12.708 9.48331L26.6147 3.15366V66.2318ZM36.4571 4.12372L39.9683 5.72432L40.8807 6.1366L45.2766 8.14947L46.189 8.56175L50.3914 10.4776L51.3037 10.8899L59.8468 14.7944V53.2088C59.7915 53.2573 59.7362 53.2815 59.7085 53.3543C59.5427 53.5968 59.598 53.9363 59.8468 54.1061V77.8725L56.3356 76.2719L55.4232 75.8597L51.2761 73.968L50.3637 73.5558L46.1613 71.6399L45.249 71.2276L40.8531 69.2147L39.9407 68.8025L36.4295 67.2019V4.12372H36.4571Z" fill="#000A1D"/>
<path d="M66.6758 13.0962V78.842C66.6758 79.2543 66.9246 79.6423 67.3393 79.8606C67.5605 79.9818 67.8093 80.0303 68.0305 80.0303C68.2517 80.0303 68.4729 79.9818 68.6664 79.8848L83.5683 73.0944L83.8724 72.9489L88.4619 70.839L89.2637 70.4753L94.7378 67.9773C95.1802 67.7833 95.4567 67.3711 95.4567 66.9345V1.18873C95.4567 0.77645 95.2078 0.388426 94.7931 0.170163C94.3784 -0.048101 93.8808 -0.0481009 93.4661 0.12166L67.3946 12.0291C66.9523 12.2474 66.6758 12.6597 66.6758 13.0962ZM92.7472 66.2312L89.236 67.8318L88.3237 68.2441L83.9277 70.257L83.0154 70.6693L78.813 72.5851L77.9006 72.9974L73.7535 74.889L72.8411 75.3013L69.3299 76.9019V56.2396C70.5188 56.1426 71.68 55.9001 72.8411 55.5606C73.1453 55.4636 73.4494 55.3666 73.7535 55.2696C73.7811 55.2696 73.7811 55.2696 73.8088 55.2453C74.1406 55.1241 74.3064 54.7603 74.1682 54.4693C74.0853 54.2995 73.947 54.2025 73.7535 54.154C73.6153 54.1055 73.4494 54.1055 73.2835 54.154C73.1453 54.2025 73.007 54.251 72.8688 54.2995C71.7076 54.6875 70.5464 54.9543 69.3576 55.0513V13.8238L72.8688 12.2232L73.5876 11.9079L77.9283 9.91926L78.8406 9.50699L83.043 7.59112L83.9554 7.17885L88.3513 5.16597L89.2637 4.7537L92.7749 3.1531V66.2312H92.7472Z" fill="#000A1D"/>
</svg>
