<svg width="99" height="81" viewBox="0 0 99 81" fill="none" xmlns="http://www.w3.org/2000/svg">
<path d="M74.3296 0L65.9717 8.37576C65.5602 8.32421 65.123 8.27267 64.7115 8.2469C61.7027 7.03563 56.3793 6.18517 50.1301 11.0045L49.9758 11.1333L47.9185 13.195C40.2034 7.93764 34.0571 11.1849 32.3341 12.3188L24.6448 4.61311L0.393799 28.9157L9.60042 38.1419C9.67757 42.2654 11.1434 46.5177 13.9723 50.7957C15.1552 52.5482 16.5182 54.1718 18.0098 55.6923C19.9129 57.6252 21.8159 59.5065 23.7447 61.4394C21.6616 64.4289 22.536 66.9287 24.6962 69.1966C26.9335 71.5418 28.9909 71.7996 32.0255 70.9233C32.0512 70.9233 32.0769 70.9233 32.1026 70.9491C34.2886 74.2221 36.2945 75.7941 38.4547 75.9745C39.3548 76.8508 40.2549 77.727 41.1549 78.6032C43.8295 81.1804 47.9185 81.7731 51.1331 79.9176C52.5218 79.1187 52.7532 78.4486 53.4733 77.3147C58.9253 81.902 62.5771 81.9793 66.8718 75.5364C66.8975 75.5107 66.9232 75.5107 66.9489 75.5107C69.9835 76.3869 72.0408 76.1292 74.2782 73.784C76.567 71.413 77.4156 68.7585 74.8697 65.4855C74.844 65.4598 74.201 64.6093 74.2268 64.6093C76.0527 64.6608 77.4928 63.5011 78.2643 62.4702C80.3731 59.7385 80.2445 56.8521 77.9814 54.0172C78.9844 53.0121 79.9616 52.0328 80.9646 51.0277C82.4561 49.5329 83.8191 47.9093 85.0021 46.1311C87.8567 41.853 89.3225 37.6265 89.3997 33.4772L98.6063 24.251L74.3296 0ZM19.4757 52.1359C16.6725 49.1721 14.5895 45.9249 13.6894 42.2138C13.4837 41.4149 13.3294 40.5644 13.2522 39.6882C13.1751 38.9666 13.1751 38.245 13.1751 37.5234L3.83985 28.1683L23.899 8.0665L30.3282 14.5094L30.7396 14.9217V14.999L33.8257 15.2568L34.0314 14.7413C35.2658 13.9166 40.332 11.0818 47.1212 16.2619L56.0964 25.3077C56.5336 25.7716 56.7908 26.3643 56.7908 27.0086C56.7908 27.6529 56.5336 28.2714 56.0964 28.7095L55.5049 29.3023C54.5534 30.23 53.0361 30.23 52.1103 29.3023L42.9294 20.0503L40.692 21.6481L43.1866 24.5603L44.2667 25.6427C43.2123 26.6993 42.1579 27.756 41.1035 28.8126C40.8463 29.0703 40.692 29.3538 40.6149 29.6631C40.5635 29.7146 40.512 29.7661 40.4606 29.8177C34.2886 36.0029 28.0908 42.188 21.9445 48.399C20.6844 49.636 19.8614 50.8988 19.4757 52.1359ZM49.2557 77.2116C48.5357 77.8816 47.8156 78.294 46.7612 78.2167C45.2954 78.1136 44.2667 76.9796 43.5723 76.2838C43.1351 75.8457 42.698 75.4076 42.2865 74.9952C43.3152 74.454 44.3695 73.6809 45.5268 72.7273C46.2469 73.8613 46.4783 74.5313 47.867 75.3303C48.4842 75.6911 49.1529 75.9488 49.8215 76.1292C49.6929 76.5673 49.5129 76.9796 49.2557 77.2116ZM62.4742 75.9745C61.0855 77.5982 59.5168 77.727 57.5108 75.8715C57.2022 75.588 56.8936 75.2787 56.585 74.9952C57.0222 74.7117 57.4337 74.3767 57.8452 73.9901C59.0024 72.882 60.134 71.748 61.2912 70.6141C61.4198 70.7429 61.5227 70.846 61.6512 70.9749C63.5286 72.9077 63.7857 74.4283 62.4742 75.9745ZM72.0923 70.9491C70.7036 72.8562 68.5691 72.882 66.666 71.0006C65.7145 70.0471 64.7887 69.0935 63.8372 68.1658C65.4059 66.6452 66.9746 65.1247 68.5176 63.5784C69.392 64.4547 70.2664 65.3309 71.1665 66.2329C72.8381 67.9081 73.1209 69.5317 72.0923 70.9491ZM75.9755 59.6869C75.2812 61.4652 73.1724 62.2898 71.5008 61.3878C71.3465 61.3105 71.1922 61.2074 71.0379 61.0786C72.5295 59.5838 74.021 58.0891 75.5383 56.5686C76.1555 57.419 76.4898 58.3726 75.9755 59.6869ZM85.7993 32.9103C85.8251 33.6577 85.7993 34.3793 85.7222 35.0751C85.645 35.9513 85.4907 36.8018 85.285 37.6265C84.3592 41.3376 82.2504 44.6106 79.4473 47.5743C75.6412 51.5947 71.6551 55.4346 67.7461 59.3519C63.6314 63.4753 59.5425 67.5988 55.4278 71.6707C54.7077 72.3665 53.7048 73.5005 52.2389 73.6036C51.1845 73.6809 50.4387 73.2685 49.7444 72.5985C49.1014 71.98 48.8957 70.4594 49.1529 69.5059C49.41 68.475 50.3358 67.5472 51.1331 66.7226C53.0104 64.8155 54.9134 62.9084 56.7908 61.027C57.7166 60.0993 58.6167 59.1715 59.5425 58.2437C60.5197 57.2386 63.3228 55.1254 61.7541 53.6564C60.2883 52.2905 58.2309 54.9192 57.3565 55.7954C56.4307 56.7232 55.5049 57.651 54.5791 58.553C50.233 62.8053 45.964 67.1091 41.4893 71.2584C39.4834 73.1397 37.8889 72.985 36.5259 71.3614C35.2144 69.8151 35.4715 68.2946 37.3746 66.3875C42.2865 61.4394 47.2241 56.517 52.136 51.5689C52.8304 50.8731 53.4219 50.4349 53.5504 49.3783C53.6533 48.6052 53.3704 47.9093 52.5475 47.7805C51.1845 47.5743 50.593 48.0897 49.7444 48.966C43.9581 54.7646 38.1718 60.5889 32.3598 66.3875C30.4568 68.2946 28.3223 68.2431 26.9335 66.336C25.9049 64.9185 26.1878 63.2949 27.8851 61.594C33.7742 55.6666 39.6634 49.7649 45.5525 43.889C46.504 42.9354 47.2756 41.853 46.0926 40.7448C44.961 39.6882 43.9838 40.616 43.1351 41.4922C38.609 46.0538 34.0571 50.5896 29.5052 55.1254C28.888 55.7181 28.2708 56.3366 27.525 56.749C25.8534 57.6767 23.7447 56.8263 23.0503 55.048C22.3302 53.244 23.256 52.0843 24.4133 50.9246C31.9483 43.3993 39.4834 35.874 46.9412 28.2972L50.0272 31.4155C51.0816 32.4722 52.4703 33.0134 53.8333 33.0134C55.1963 33.0134 56.585 32.4979 57.6394 31.4413L58.2309 30.8486C59.2596 29.8435 59.7996 28.4776 59.8254 27.0344C59.8254 25.6685 59.311 24.4057 58.4366 23.4263L51.5445 16.4938L50.2073 15.1537L52.0332 13.3239C54.862 11.1591 57.3823 10.4117 59.4653 10.3086C63.2714 9.97359 66.6403 11.958 66.6403 11.958L68.6719 9.92205L75.1011 3.47916L95.1602 23.581L85.7993 32.9103Z" fill="#000A1D"/>
</svg>
