<svg width="61" height="81" viewBox="0 0 61 81" fill="none" xmlns="http://www.w3.org/2000/svg">
<path d="M24.1344 0.213759C20.1253 -0.762656 16.0735 1.69961 15.0712 5.69017L0.65558 64.2751C0.186431 66.2067 0.484981 68.202 1.5299 69.9213C2.57483 71.6194 4.21685 72.8293 6.15742 73.2963L36.8867 80.7892C37.4838 80.9378 38.0809 81.0015 38.678 81.0015C40.0214 81.0015 41.3649 80.6407 42.5378 79.919C44.2438 78.8789 45.4593 77.2444 45.9285 75.3128L60.3441 16.7279C60.8133 14.7963 60.5147 12.7798 59.4698 11.0817C58.4249 9.38357 56.7829 8.17367 54.8423 7.70668L24.1344 0.213759ZM57.1454 15.9425L42.7297 74.5274C42.4525 75.61 41.7914 76.5227 40.8318 77.0958C39.8722 77.669 38.7419 77.8388 37.6544 77.584L6.94644 70.0911C5.85887 69.8364 4.9419 69.1572 4.36612 68.202C3.79035 67.2468 3.61975 66.1218 3.87565 65.0392L18.2913 6.45433C18.8458 4.22555 21.1062 2.84583 23.3453 3.39772L54.0746 10.8906C55.1622 11.1666 56.0791 11.8246 56.6549 12.7798C57.252 13.735 57.4226 14.86 57.1454 15.9425Z" fill="#000A1D"/>
<path d="M27.4185 19.2114C27.8023 19.2963 28.1862 19.36 28.57 19.36C29.4443 19.3388 30.2973 19.1053 31.065 18.6383C32.1739 17.9803 32.9416 16.919 33.2615 15.6666C33.9013 13.077 32.3019 10.4661 29.7216 9.85056C28.4634 9.55339 27.1626 9.74443 26.0537 10.4025C24.9448 11.0605 24.1771 12.1218 23.8572 13.3741C23.2388 15.9638 24.8168 18.5746 27.4185 19.2114ZM27.0773 12.1006C27.5251 11.8246 28.0369 11.6973 28.5487 11.6973C28.7833 11.6973 28.9965 11.7185 29.2311 11.7822C30.7665 12.1642 31.7048 13.6925 31.3209 15.2208C31.129 15.9638 30.6812 16.5793 30.0201 16.9826C29.359 17.3859 28.5913 17.4921 27.8663 17.3223C26.3309 16.9402 25.3926 15.4119 25.7765 13.8836C25.9684 13.1194 26.4375 12.4826 27.0773 12.1006Z" fill="#000A1D"/>
<path d="M30.404 27.3199C30.7025 26.0675 30.5106 24.7727 29.8495 23.669C29.1885 22.5652 28.1222 21.801 26.8641 21.4826C25.6059 21.1855 24.3051 21.3765 23.1962 22.0345C22.0873 22.6925 21.3196 23.7539 20.9997 25.0062C20.7011 26.2586 20.8931 27.5534 21.5541 28.6572C22.2152 29.7609 23.2815 30.5251 24.5396 30.8435C24.9235 30.9284 25.3073 30.9921 25.6912 30.9921C26.5655 30.9921 27.4185 30.7586 28.1862 30.2916C29.3164 29.6124 30.0841 28.551 30.404 27.3199ZM27.1839 28.5935C26.5229 28.9968 25.7552 29.1029 25.0301 28.9331C24.2837 28.7421 23.6653 28.2963 23.2601 27.6383C22.855 26.9803 22.7483 26.2161 22.9189 25.4944C23.0895 24.7515 23.5587 24.1359 24.2198 23.7326C24.6676 23.4567 25.1794 23.3293 25.6912 23.3293C25.9258 23.3293 26.139 23.3506 26.3736 23.4142C27.12 23.5841 27.7384 24.051 28.1436 24.7091C28.5487 25.3671 28.6554 26.1312 28.4848 26.8529C28.2928 27.5746 27.8237 28.2114 27.1839 28.5935Z" fill="#000A1D"/>
<path d="M23.8999 33.518C21.3195 32.8812 18.6752 34.4732 18.0568 37.0416C17.7583 38.2939 17.9502 39.5888 18.6113 40.6925C19.2723 41.7963 20.3386 42.5605 21.5968 42.8789C21.9806 42.9638 22.3645 43.0274 22.7483 43.0274C23.6226 43.0274 24.4756 42.7939 25.2433 42.327C26.3522 41.6689 27.1199 40.6076 27.4398 39.3553C27.7383 38.1029 27.5464 36.8081 26.8854 35.7043C26.203 34.6005 25.1367 33.8152 23.8999 33.518ZM24.2197 40.6288C23.5587 41.0322 22.791 41.1383 22.0659 40.9685C20.5305 40.5864 19.5922 39.0581 19.9761 37.5298C20.2959 36.235 21.4688 35.3647 22.7483 35.3647C22.9616 35.3647 23.1961 35.3859 23.4307 35.4496C24.1771 35.6406 24.7955 36.0864 25.2007 36.7444C25.6059 37.4024 25.7125 38.1666 25.5419 38.8883C25.3286 39.61 24.8808 40.2255 24.2197 40.6288Z" fill="#000A1D"/>
<path d="M21.021 45.1501C18.4193 44.5133 15.7963 46.1053 15.1779 48.6737C14.8794 49.926 15.0713 51.2208 15.7324 52.3246C16.3934 53.4284 17.4597 54.1925 18.7179 54.5109C19.1017 54.5958 19.4856 54.6595 19.8694 54.6595C22.0446 54.6595 24.0278 53.1949 24.5609 50.9873C24.8594 49.735 24.6675 48.4402 24.0064 47.3364C23.3454 46.2326 22.2791 45.4473 21.021 45.1501ZM19.187 52.5793C18.4406 52.4095 17.8222 51.9425 17.417 51.2845C17.0119 50.6265 16.9052 49.8623 17.0758 49.1406C17.3957 47.8458 18.5686 46.9756 19.8481 46.9756C20.0827 46.9756 20.2959 46.9968 20.5305 47.0605C21.2769 47.2515 21.8953 47.6973 22.3005 48.3553C22.6843 49.0133 22.8122 49.7774 22.6416 50.4991C22.2791 52.0274 20.7224 52.9614 19.187 52.5793Z" fill="#000A1D"/>
<path d="M17.9927 57.4826C16.7345 57.1855 15.4337 57.3765 14.3248 58.0345C13.2159 58.6925 12.4482 59.7539 12.1283 61.0062C11.4886 63.5959 13.0879 66.2067 15.6682 66.8223C16.0521 66.9072 16.4359 66.9708 16.8198 66.9708C18.9949 66.9708 20.9782 65.5062 21.5113 63.2987C21.8098 62.0463 21.6179 60.7515 20.9568 59.6477C20.2958 58.5652 19.2508 57.801 17.9927 57.4826ZM16.1587 64.9331C14.6233 64.551 13.685 63.0227 14.0689 61.4944C14.2608 60.7515 14.7086 60.1359 15.3697 59.7326C15.8175 59.4567 16.3293 59.3293 16.8411 59.3293C17.0757 59.3293 17.2889 59.3506 17.5235 59.4142C19.0589 59.7963 19.9972 61.3246 19.6134 62.8529C19.2295 64.36 17.6941 65.294 16.1587 64.9331Z" fill="#000A1D"/>
<path d="M45.9497 13.8199C43.348 13.1831 40.7251 14.7751 40.1066 17.3435C39.8081 18.5958 40 19.8906 40.6611 20.9944C41.3222 22.0982 42.3884 22.8623 43.6466 23.1807C44.0304 23.2656 44.4143 23.3293 44.7981 23.3293C45.6724 23.3293 46.5254 23.0958 47.2931 22.6288C48.402 21.9708 49.1697 20.9095 49.4896 19.6571C50.1294 17.0463 48.5513 14.4354 45.9497 13.8199ZM46.2909 20.9095C45.6298 21.3128 44.8621 21.4189 44.137 21.2491C43.3907 21.0581 42.7722 20.6123 42.3671 19.9543C41.9619 19.2963 41.8553 18.5321 42.0259 17.8104C42.3457 16.5156 43.5186 15.6454 44.7981 15.6454C45.0327 15.6454 45.2459 15.6666 45.4805 15.7303C47.0159 16.1123 47.9542 17.6406 47.5704 19.1689C47.3998 19.9119 46.9306 20.5274 46.2909 20.9095Z" fill="#000A1D"/>
<path d="M43.0922 25.452C40.5119 24.8152 37.8676 26.4071 37.2492 28.9755C36.9507 30.2279 37.1426 31.5227 37.8037 32.6265C38.4647 33.7303 39.531 34.4944 40.7891 34.8128C41.173 34.8977 41.5568 34.9614 41.9407 34.9614C42.815 34.9614 43.668 34.7279 44.4357 34.2609C45.5446 33.6029 46.3123 32.5416 46.6322 31.2892C47.2719 28.6996 45.6726 26.0888 43.0922 25.452ZM43.4121 32.5628C42.751 32.9661 41.9833 33.0722 41.2583 32.9024C39.7229 32.5204 38.7846 30.9921 39.1685 29.4638C39.4883 28.1689 40.6612 27.2987 41.9407 27.2987C42.1539 27.2987 42.3885 27.3199 42.6231 27.3836C44.1585 27.7656 45.0968 29.2939 44.7129 30.8222C44.5423 31.5439 44.0732 32.1595 43.4121 32.5628Z" fill="#000A1D"/>
<path d="M40.1281 37.4661C37.5264 36.8293 34.9035 38.4213 34.285 40.9897C33.6453 43.5793 35.2447 46.1902 37.825 46.8057C38.2088 46.8906 38.5927 46.9543 38.9765 46.9543C41.1517 46.9543 43.1349 45.4685 43.668 43.2822C44.3078 40.7138 42.7297 38.1029 40.1281 37.4661ZM38.2941 44.9166C36.7587 44.5345 35.8204 43.0062 36.2043 41.4779C36.5242 40.1831 37.697 39.3128 38.9765 39.3128C39.1898 39.3128 39.4244 39.334 39.6589 39.3977C41.1943 39.7798 42.1326 41.3081 41.7488 42.8364C41.3863 44.3435 39.8295 45.2774 38.2941 44.9166Z" fill="#000A1D"/>
<path d="M37.2707 49.1194C34.669 48.4826 32.046 50.0746 31.4276 52.643C30.7879 55.2326 32.3872 57.8435 34.9676 58.459C35.3514 58.5439 35.7353 58.6076 36.1191 58.6076C38.2943 58.6076 40.2775 57.143 40.8106 54.9354C41.4503 52.3458 39.851 49.735 37.2707 49.1194ZM35.4367 56.5487C33.9013 56.1666 32.963 54.6383 33.3469 53.11C33.6667 51.8152 34.8396 50.9449 36.1191 50.9449C36.3537 50.9449 36.5669 50.9661 36.8015 51.0298C38.3369 51.4119 39.2752 52.9402 38.8914 54.4685C38.5075 55.9755 36.9721 56.9095 35.4367 56.5487Z" fill="#000A1D"/>
<path d="M34.221 61.452C32.9628 61.1548 31.662 61.3458 30.5531 62.0039C29.4442 62.6619 28.6765 63.7232 28.3566 64.9756C28.0581 66.2279 28.25 67.5227 28.9111 68.6265C29.5722 69.7303 30.6384 70.4944 31.8966 70.8128C32.2804 70.8977 32.6643 70.9614 33.0481 70.9614C33.9224 70.9614 34.7754 70.7279 35.5431 70.2609C36.652 69.6029 37.4197 68.5416 37.7396 67.2892C38.4007 64.6996 36.8226 62.0888 34.221 61.452ZM34.5622 68.5628C33.9011 68.9661 33.1334 69.0723 32.4084 68.9024C31.662 68.7326 31.0436 68.2657 30.6384 67.6076C30.2332 66.9496 30.1266 66.1855 30.2972 65.4638C30.4891 64.7208 30.9369 64.1053 31.598 63.702C32.0458 63.426 32.5576 63.2987 33.0694 63.2987C33.304 63.2987 33.5173 63.3199 33.7518 63.3836C35.2872 63.7657 36.2255 65.294 35.8417 66.8223C35.6711 67.544 35.2019 68.1595 34.5622 68.5628Z" fill="#000A1D"/>
</svg>
