<svg width="79" height="81" viewBox="0 0 79 81" fill="none" xmlns="http://www.w3.org/2000/svg">
<path d="M10.3964 40.814C10.2081 40.814 10.0197 40.8558 9.85226 40.9186C9.64295 41.0023 4.89179 43.1581 3.40574 50.3163C1.75226 58.2279 1.56388 59.2326 1.54295 63.4605C0.998768 64.2349 0.684814 65.1768 0.684814 66.1814C0.684814 68.7977 2.77784 70.9116 5.33133 70.9116H14.6034V75.5372C14.6034 78.593 17.8267 81 21.9499 81C26.0523 81 29.2755 78.593 29.2755 75.5372V70.9116H49.2848V75.5372C49.2848 78.593 52.5081 81 56.6104 81C60.7337 81 63.9569 78.593 63.9569 75.5372V70.9116H73.6685C76.243 70.9116 78.315 68.7767 78.315 66.1814C78.315 64.8 77.729 63.5442 76.7871 62.6861C76.7453 59.086 76.4732 57.7256 74.9244 50.3372C73.4383 43.1791 68.6662 41.0233 68.4778 40.9395C68.3104 40.8558 68.122 40.8349 67.9337 40.8349H63.4755L63.015 37.7581H65.2546C66.1964 37.7581 66.9709 37.0047 66.9709 36.0419C66.9709 35.1 66.1964 34.3256 65.2546 34.3256H62.5127L59.7081 15.4256C59.6034 14.7558 59.0383 14.2535 58.3476 14.2535H54.0988V1.02558C54.0988 0.460465 53.6383 0 53.0732 0H35.4081C34.843 0 34.3825 0.460465 34.3825 1.02558V6.36279H27.0988C26.5337 6.36279 26.0732 6.82326 26.0732 7.38837V14.2535H19.9616C19.2918 14.2535 18.7057 14.7558 18.6011 15.4256L15.7546 34.6605H12.5523C11.7988 34.6605 11.1918 35.2674 11.1918 36.0209C11.1918 36.7744 11.7988 37.3814 12.5523 37.3814H15.3569L14.8546 40.814H10.3964ZM28.1662 8.41395H44.429V14.4209H28.1662V8.41395ZM52.0895 2.05116V14.7767H46.4802V7.38837C46.4802 6.82326 46.0197 6.36279 45.4546 6.36279H36.4755V2.05116H52.0895ZM57.1964 16.9744L60.9639 42.3628C61.0685 43.0326 61.6337 43.5349 62.3034 43.5349H67.6197C68.415 43.9953 71.2406 45.9209 72.2662 50.8814C73.5639 57.1186 73.9406 58.8977 74.0244 61.4721C73.8988 61.4721 73.7732 61.4512 73.6476 61.4512H5.33133C4.97551 61.4512 4.6197 61.493 4.28481 61.5767C4.38947 58.9395 4.74528 57.2023 6.06388 50.8814C7.08947 45.9209 9.91505 43.9953 10.7104 43.5349H16.0267C16.6964 43.5349 17.2825 43.0326 17.3662 42.3628L21.1337 16.9744H57.1964ZM73.6685 68.1907H5.33133C4.26388 68.1907 3.40574 67.2907 3.40574 66.1814C3.40574 65.0721 4.26388 64.1721 5.33133 64.1721H73.6685C74.736 64.1721 75.5941 65.0721 75.5941 66.1814C75.5941 67.2907 74.736 68.1907 73.6685 68.1907ZM56.6104 78.2791C53.8895 78.2791 52.0057 76.8349 52.0057 75.5372V70.9116H61.215V75.5372C61.215 76.8349 59.3313 78.2791 56.6104 78.2791ZM21.9499 78.2791C19.229 78.2791 17.3453 76.8349 17.3453 75.5372V70.9116H26.5546V75.5372C26.5546 76.8349 24.6709 78.2791 21.9499 78.2791Z" fill="#000A1D"/>
<path d="M22.3476 41.6721H56.2965C56.6942 41.6721 57.05 41.5046 57.3221 41.2116C57.5732 40.9186 57.6988 40.5419 57.6569 40.1442L55.6058 21.5791C55.5221 20.8884 54.936 20.3651 54.2453 20.3651H24.3988C23.7081 20.3651 23.1221 20.8884 23.0383 21.5791L20.9872 40.1442C20.9453 40.5209 21.0709 40.9186 21.3221 41.2116C21.5942 41.5046 21.9709 41.6721 22.3476 41.6721ZM38.8197 27.1046H40.85H44.5756V28.5279H35.0104V27.1046H38.8197ZM40.1802 25.7442H39.5104V23.5256H40.1802V25.7442ZM38.15 23.107V25.7442H34.3407C33.9639 25.7442 33.65 26.0581 33.65 26.4349V29.2186C33.65 29.5953 33.9639 29.9093 34.3407 29.9093H45.2662C45.643 29.9093 45.9569 29.5953 45.9569 29.2186V26.4349C45.9569 26.0581 45.643 25.7442 45.2662 25.7442H41.5407V23.107H53.0314L54.7895 38.9512H23.8756L25.6337 23.107H38.15Z" fill="#000A1D"/>
<path d="M51.7336 52.2209C51.7336 56.0093 54.8104 59.107 58.6197 59.107C62.4081 59.107 65.5057 56.0302 65.5057 52.2209C65.5057 48.4325 62.429 45.3349 58.6197 45.3349C54.8313 45.3558 51.7336 48.4325 51.7336 52.2209ZM58.6197 48.0767C60.9011 48.0767 62.7639 49.9395 62.7639 52.2209C62.7639 54.5023 60.9011 56.3651 58.6197 56.3651C56.3383 56.3651 54.4755 54.5023 54.4755 52.2209C54.4755 49.9395 56.3383 48.0767 58.6197 48.0767Z" fill="#000A1D"/>
<path d="M21.2593 45.3558C17.471 45.3558 14.3733 48.4535 14.3733 52.2418C14.3733 56.0302 17.45 59.1279 21.2593 59.1279C25.0477 59.1279 28.1454 56.0512 28.1454 52.2418C28.1454 48.4325 25.0477 45.3558 21.2593 45.3558ZM21.2593 56.386C18.9779 56.386 17.1152 54.5232 17.1152 52.2418C17.1152 49.9605 18.9779 48.0977 21.2593 48.0977C23.5407 48.0977 25.4035 49.9605 25.4035 52.2418C25.4035 54.5232 23.5407 56.386 21.2593 56.386Z" fill="#000A1D"/>
</svg>
